<?xml version="1.0" encoding="UTF-8"?>
<svg width="16" height="16" fill="currentColor" stroke="currentColor" stroke-width="0" version="1.1" viewBox="0 0 16 16" xml:space="preserve" xmlns="http://www.w3.org/2000/svg">
	
    <path d="m0.72085 0.10934a0.6066 0.87674 0 0 0 0 1.7535h14.558a0.6066 0.87674 0 0 0 0-1.7535zm-0.6066 7.8907a0.6066 0.87674 0 0 1 0.6066-0.87674h14.558a0.6066 0.87674 0 0 1 0 1.7535h-14.558a0.6066 0.87674 0 0 1-0.6066-0.87674zm0 7.0139a0.6066 0.87674 0 0 1 0.6066-0.87674h14.558a0.6066 0.87674 0 0 1 0 1.7535h-14.558a0.6066 0.87674 0 0 1-0.6066-0.87674z" fill="currentColor" style="stroke-width:0" />
    </svg>
