<?xml version="1.0" encoding="UTF-8"?>
<svg width="140" height="40" stroke="currentColor" fill="currentColor" stroke-width="0" version="1.1" viewBox="0 0 140 40" xmlns="http://www.w3.org/2000/svg">
 <g fill="">
  <path class="ccompli2" d="m24.375 20.026c-0.379 0.3813-0.6692 0.8415-0.85 1.3477-0.1808 0.5063-0.2477 1.0462-0.196 1.5813l-0.018-0.018c0.0532 0.6299-0.0318 1.2637-0.2489 1.8574-0.2171 0.5936-0.5611 1.1327-1.008 1.5797-0.447 0.4469-0.9861 0.791-1.5798 1.008-0.5936 0.2171-1.2275 0.3021-1.8573 0.2489l0.018 0.018c-0.7534-0.0701-1.5101 0.0938-2.167 0.4695-0.6568 0.3757-1.1818 0.9448-1.5033 1.6298s-0.424 1.4524-0.2934 2.1978c0.1307 0.7453 0.488 1.4322 1.0233 1.967s1.2225 0.8915 1.9679 1.0214c0.7455 0.13 1.5128 0.0268 2.1975-0.2953 0.6847-0.3222 1.2533-0.8476 1.6284-1.5048s0.5384-1.414 0.4676-2.1674l0.019 0.018c-0.0532-0.6298 0.0317-1.2637 0.2488-1.8574 0.2171-0.5936 0.5612-1.1327 1.0081-1.5797 0.447-0.4469 0.9861-0.791 1.5797-1.008 0.5937-0.2171 1.2275-0.3021 1.8574-0.2489l-0.019-0.018c0.6154 0.0553 1.2349-0.0456 1.801-0.2934 0.566-0.2478 1.0604-0.6345 1.4372-1.1242s0.624-1.0667 0.7184-1.6773c0.0945-0.6107 0.0333-1.2353-0.1779-1.8161-0.2112-0.5807-0.5656-1.0987-1.0303-1.506s-1.0247-0.6907-1.6281-0.8239-1.2307-0.112-1.8237 0.0617c-0.593 0.1738-1.1325 0.4944-1.5686 0.9322z"/>
  <path class="ccompli1" d="m16.998 25.291-0.019-0.018c0.5353 0.0539 1.0759-0.0118 1.5828-0.1924 0.5068-0.1806 0.9672-0.4715 1.3478-0.8518 0.3805-0.3803 0.6719-0.8405 0.8528-1.3472 0.181-0.5067 0.2471-1.0472 0.1936-1.5826l0.019 0.018c-0.0532-0.6299 0.0318-1.2637 0.2488-1.8574 0.2171-0.5936 0.5612-1.1327 1.0081-1.5797 0.447-0.4469 0.9861-0.791 1.5797-1.008 0.5937-0.21714 1.2275-0.30207 1.8574-0.2489l-0.019-0.018c0.7535 0.0708 1.5104-0.09264 2.1676-0.4679 0.6573-0.37526 1.1827-0.94413 1.5047-1.629 0.322-0.68486 0.4249-1.4524 0.2947-2.1979s-0.4872-1.4327-1.0224-1.9678c-0.5351-0.53513-1.2223-0.89217-1.9678-1.0224-0.7455-0.13023-1.513-0.02732-2.1979 0.2947-0.6849 0.32201-1.2537 0.84746-1.629 1.5047-0.3753 0.6572-0.5387 1.4142-0.4679 2.1676l-0.018-0.019c0.0533 0.62989-0.0315 1.2638-0.2485 1.8576s-0.5611 1.1329-1.008 1.58c-0.447 0.4469-0.9862 0.791-1.5799 1.008-0.5938 0.217-1.2277 0.3018-1.8576 0.2485l0.018 0.019c-0.5353-0.0539-1.076 0.0118-1.5828 0.1924-0.5068 0.1805-0.9672 0.4715-1.3478 0.8518s-0.6719 0.8405-0.8529 1.3472c-0.1809 0.5067-0.247 1.0472-0.1935 1.5826l-0.018-0.018c0.053 0.6298-0.0321 1.2636-0.2492 1.8572-0.2172 0.5935-0.5612 1.1326-1.0081 1.5795-0.44694 0.4469-0.98598 0.7909-1.5795 1.0081-0.59356 0.2171-1.2274 0.3022-1.8572 0.2492l0.018 0.018c-0.75348-0.0708-1.5104 0.0926-2.1677 0.4679-0.6572 0.3753-1.1826 0.9441-1.5047 1.629-0.32202 0.6849-0.42494 1.4524-0.29471 2.1979s0.48727 1.4327 1.0224 1.9678c0.53514 0.5352 1.2223 0.8922 1.9678 1.0224s1.513 0.0273 2.1979-0.2947c0.68486-0.322 1.2537-0.8474 1.629-1.5046 0.3753-0.6573 0.5387-1.4142 0.4679-2.1677l0.019 0.018c-0.0532-0.6299 0.0318-1.2637 0.2489-1.8574 0.217-0.5936 0.5611-1.1327 1.008-1.5797 0.447-0.4469 0.9861-0.791 1.5797-1.008 0.5937-0.2171 1.2275-0.3021 1.8574-0.2489z"/>
  <path class="ccustom" d="m10.296 23.284c0.37902-0.3812 0.6692-0.8414 0.84984-1.3477s0.24728-1.0463 0.19516-1.5813l0.01899 0.018c-0.0532-0.63 0.03176-1.2641 0.24897-1.8579s0.56144-1.133 1.0086-1.58c0.4472-0.44698 0.9865-0.79097 1.5804-1.0079 0.5939-0.21696 1.228-0.30166 1.858-0.24818l-0.019-0.018c0.7532 0.07057 1.5099-0.09292 2.1668-0.46816 0.6569-0.37523 1.182-0.94396 1.5039-1.6286 0.3218-0.68466 0.4246-1.4519 0.2944-2.1971s-0.4872-1.4322-1.0221-1.9671-1.2219-0.89186-1.9671-1.0221c-0.7452-0.13023-1.5125-0.02741-2.1971 0.29441-0.6847 0.32182-1.2534 0.84699-1.6286 1.5039-0.3753 0.6569-0.5388 1.4136-0.4682 2.1668l-0.018-0.018c0.0532 0.62985-0.0318 1.2637-0.2489 1.8574s-0.56108 1.1328-1.008 1.5797c-0.44695 0.44696-0.98607 0.79099-1.5797 1.008-0.59364 0.2171-1.2275 0.3021-1.8574 0.2489l0.018 0.018c-0.61543-0.0552-1.2348 0.0459-1.8008 0.2938s-1.0602 0.6347-1.4369 1.1245c-0.37671 0.4897-0.62369 1.0667-0.71807 1.6773-0.09437 0.6107-0.03308 1.2353 0.17819 1.8159 0.21127 0.5807 0.5657 1.0986 1.0304 1.5058 0.46473 0.4073 1.0247 0.6906 1.6281 0.8238 0.60337 0.1331 1.2306 0.1118 1.8236-0.0619 0.59296-0.1738 1.1325-0.4944 1.5685-0.9322z"/>
 </g>
 <text transform="scale(.94999 1.0526)" x="89.436569" y="29.034988" style="fill-rule:evenodd;font-family:Tahoma;font-size:20.9px;font-weight:bold;paint-order:markers fill stroke;stroke-linecap:round;stroke-opacity:.96575;text-align:center;text-anchor:middle" xml:space="preserve"><tspan x="89.436569" y="29.034988" style="">fancyshop</tspan></text>
</svg>
