<?xml version="1.0" encoding="UTF-8"?>
<svg width="16" height="16" fill="currentColor" stroke="currentColor" stroke-width="0" version="1.1" viewBox="0 0 16 16" xml:space="preserve" xmlns="http://www.w3.org/2000/svg">
      <path d="m0.070388 4.1145a0.69312 0.4182 0 0 0 0.70482 0.43584h2.4128c0.40359 0 0.72529-0.19939 0.77793-0.44114 0.26321-1.1575 1.5793-2.001 3.9248-2.001 2.0062 0 3.8429 0.60524 3.8429 2.061 0 1.1205-1.0938 1.6357-2.8222 2.4192-1.9682 0.86287-3.527 1.8704-3.4159 3.5062l0.00877 0.38291a0.73114 0.44114 0 0 0 0.73114 0.43408h2.3718a0.73114 0.44114 0 0 0 0.73114-0.44114v-0.18528c0-1.2669 0.7984-1.6357 2.9538-2.6221 1.7811-0.81699 3.6381-1.724 3.6381-3.6279 0-2.6662-3.7317-3.9544-7.8173-3.9544-3.7054 0-7.7647 1.0411-8.0425 4.0338zm4.5535 10.169c0 0.9405 1.2429 1.6357 2.9538 1.6357 1.7811 0 3.0064-0.69523 3.0064-1.6357 0-0.97403-1.2283-1.6587-3.0094-1.6587-1.7079 0-2.9509 0.68464-2.9509 1.6587z" style="stroke-width:0"/>
    </svg>
