<?xml version="1.0" encoding="UTF-8"?>
<svg width="16" height="16" fill="currentColor" stroke="currentColor" stroke-width="0" version="1.1" viewBox="0 0 16 16" xml:space="preserve" xmlns="http://www.w3.org/2000/svg">
      <path d="m0 0h24v24h-24z" fill="none"/>
      <path d="m3.6552 5.3604v-1.5086c-0.00176-5.0303 8.6878-5.0303 8.6896 0v1.5086h2.6069c0.47991-1e-7 0.86896 0.33772 0.86896 0.75432v9.0519c0 0.4166-0.38905 0.75432-0.86896 0.75432h-13.903c-0.47991 0-0.86896-0.33772-0.86896-0.75432v-9.0519c-1e-8 -0.4166 0.38905-0.75432 0.86896-0.75432zm-1.7379 1.5086v7.5432h12.165v-7.5432c-5.0835 0.063141-8.8349-0.00966-12.165 0zm3.4758-1.5086h5.2138v-1.5086c-0.0014-3.0161-5.2151-3.0161-5.2138 0z" style="stroke-width:0"/>
    </svg>
